# xmcd
#
# Track frame offsets: 
#        150
#        24949
#        43351
#        59587
#        71334
#        88341
#        105344
#        121952
#        134445
#        147013
#        168141
#        188410
#        205887
#        223557
#
# Disc length: 3178 seconds
#
# Revision: 0
# Processed by: cddbd v1.5.2PL0 Copyright (c) Steve Scherf et al.
# Submitted via: ExactAudioCopy v1.3
#
DISCID=c40c680e
DTITLE=Ramon "RJ" Jacinto - Christmas Guitar Instrumentals
DYEAR=2016
DGENRE=Blues
TTITLE0=Silent Night - O Holy Night Medley
TTITLE1=Feliz Navidad
TTITLE2=O Come All Ye Faithful
TTITLE3=Jingle Bell Rock
TTITLE4=Mary's Boy Child
TTITLE5=Little Saint Nick
TTITLE6=Silver Bells
TTITLE7=We Wish You a Merry Christmas
TTITLE8=Little Drummer Boy
TTITLE9=White Christmas
TTITLE10=Jingle Bells - Here Comes Santa Claus
TTITLE11=O Little Town of Bethlehem
TTITLE12=Santa Claus is Coming - Frosty the Snowman
TTITLE13=Greensleeves
EXTD=
EXTT0=
EXTT1=
EXTT2=
EXTT3=
EXTT4=
EXTT5=
EXTT6=
EXTT7=
EXTT8=
EXTT9=
EXTT10=
EXTT11=
EXTT12=
EXTT13=
PLAYORDER=
